<svg width="64" height="64" viewBox="0 0 64 64" fill="none" xmlns="http://www.w3.org/2000/svg">
  <!-- Background circle with gradient -->
  <circle cx="32" cy="32" r="30" fill="url(#gradient)" stroke="#00E7FF" stroke-width="2"/>
  
  <!-- Central hexagon representing network/connectivity -->
  <polygon points="32,12 44,20 44,32 32,40 20,32 20,20" fill="#00E7FF" opacity="0.8"/>
  
  <!-- Inner network nodes -->
  <circle cx="32" cy="24" r="2" fill="#0E0E12"/>
  <circle cx="28" cy="28" r="1.5" fill="#0E0E12"/>
  <circle cx="36" cy="28" r="1.5" fill="#0E0E12"/>
  <circle cx="32" cy="32" r="2" fill="#0E0E12"/>
  <circle cx="28" cy="36" r="1.5" fill="#0E0E12"/>
  <circle cx="36" cy="36" r="1.5" fill="#0E0E12"/>
  
  <!-- Connection lines -->
  <line x1="32" y1="24" x2="28" y2="28" stroke="#00E7FF" stroke-width="1" opacity="0.6"/>
  <line x1="32" y1="24" x2="36" y2="28" stroke="#00E7FF" stroke-width="1" opacity="0.6"/>
  <line x1="28" y1="28" x2="32" y2="32" stroke="#00E7FF" stroke-width="1" opacity="0.6"/>
  <line x1="36" y1="28" x2="32" y2="32" stroke="#00E7FF" stroke-width="1" opacity="0.6"/>
  <line x1="32" y1="32" x2="28" y2="36" stroke="#00E7FF" stroke-width="1" opacity="0.6"/>
  <line x1="32" y1="32" x2="36" y2="36" stroke="#00E7FF" stroke-width="1" opacity="0.6"/>
  
  <!-- Outer ring representing blockchain/verification -->
  <circle cx="32" cy="32" r="26" fill="none" stroke="#00E7FF" stroke-width="1" opacity="0.4"/>
  
  <!-- Gradient definition -->
  <defs>
    <radialGradient id="gradient" cx="50%" cy="50%" r="50%">
      <stop offset="0%" stop-color="#00E7FF" stop-opacity="0.1"/>
      <stop offset="100%" stop-color="#0E0E12" stop-opacity="0.8"/>
    </radialGradient>
  </defs>
</svg>
